<svg id="_x31_" enable-background="new 0 0 24 24" height="512" viewBox="0 0 24 24" width="512" xmlns="http://www.w3.org/2000/svg"><g><g><path d="m14.472 16.5c-.083 0-.167-.021-.242-.062l-2.23-1.233-2.23 1.233c-.167.093-.374.081-.53-.029s-.236-.3-.206-.489l.432-2.646-1.824-1.869c-.131-.134-.176-.33-.116-.508s.213-.307.398-.335l2.5-.382 1.123-2.392c.165-.351.74-.351.905 0l1.123 2.392 2.5.382c.185.028.339.158.398.335s.015.374-.116.508l-1.824 1.869.432 2.646c.031.189-.049.379-.206.489-.085.06-.186.091-.287.091zm-2.472-2.367c.083 0 .167.021.242.062l1.571.869-.307-1.878c-.025-.157.025-.316.136-.43l1.32-1.354-1.802-.275c-.165-.025-.306-.131-.377-.282l-.783-1.668-.783 1.669c-.071.151-.212.257-.377.282l-1.802.275 1.32 1.354c.111.114.161.273.136.43l-.307 1.878 1.571-.869c.075-.042.159-.063.242-.063z"/></g></g><g><g><path d="m21.972 9c-.083 0-.167-.021-.242-.062l-2.23-1.233-2.23 1.233c-.167.093-.374.081-.53-.029s-.236-.3-.206-.489l.432-2.646-1.824-1.869c-.131-.134-.176-.33-.116-.508s.213-.307.398-.335l2.5-.382 1.123-2.392c.165-.351.74-.351.905 0l1.123 2.392 2.5.382c.185.028.339.158.398.335s.015.374-.116.508l-1.824 1.869.432 2.646c.031.189-.049.379-.206.489-.085.06-.186.091-.287.091zm-2.472-2.367c.083 0 .167.021.242.062l1.571.869-.307-1.878c-.025-.157.025-.316.136-.43l1.32-1.354-1.802-.275c-.165-.025-.306-.131-.377-.282l-.783-1.668-.783 1.669c-.071.151-.212.257-.377.282l-1.802.275 1.32 1.354c.111.114.161.273.136.43l-.307 1.878 1.571-.869c.075-.042.159-.063.242-.063z"/></g></g><g><g><path d="m21.972 24c-.083 0-.167-.021-.242-.062l-2.23-1.233-2.23 1.233c-.167.093-.374.082-.53-.029s-.236-.3-.206-.489l.432-2.646-1.824-1.869c-.131-.134-.176-.33-.116-.508s.213-.307.398-.335l2.5-.382 1.123-2.392c.165-.351.74-.352.905 0l1.123 2.392 2.5.382c.185.028.339.158.398.335s.015.374-.116.508l-1.824 1.869.432 2.646c.031.189-.049.379-.206.489-.085.06-.186.091-.287.091zm-2.472-2.367c.083 0 .167.021.242.062l1.571.869-.307-1.878c-.025-.157.025-.316.136-.43l1.32-1.354-1.802-.275c-.165-.025-.306-.131-.377-.282l-.783-1.668-.783 1.669c-.071.151-.212.257-.377.282l-1.802.275 1.32 1.354c.111.114.161.273.136.43l-.307 1.878 1.571-.869c.075-.042.159-.063.242-.063z"/></g></g><g><g><path d="m6.972 9c-.083 0-.166-.021-.242-.062l-2.23-1.233-2.23 1.233c-.167.093-.374.081-.53-.029s-.236-.3-.206-.489l.432-2.646-1.824-1.869c-.131-.134-.176-.33-.116-.508s.213-.307.398-.335l2.5-.382 1.123-2.392c.165-.351.74-.351.905 0l1.123 2.392 2.5.382c.186.028.34.157.399.335s.015.374-.116.508l-1.824 1.869.432 2.646c.031.188-.049.378-.206.489-.086.06-.187.091-.288.091zm-2.472-2.367c.083 0 .167.021.242.062l1.571.869-.307-1.878c-.025-.157.025-.316.136-.43l1.32-1.354-1.802-.275c-.164-.024-.306-.13-.377-.281l-.783-1.669-.783 1.669c-.071.151-.213.257-.377.281l-1.802.276 1.32 1.354c.111.114.161.273.136.43l-.307 1.877 1.571-.869c.075-.041.159-.062.242-.062z"/></g></g><g><g><path d="m6.972 24c-.083 0-.167-.021-.242-.062l-2.23-1.233-2.23 1.233c-.167.093-.373.082-.53-.029-.156-.11-.236-.3-.206-.489l.432-2.646-1.824-1.869c-.131-.134-.176-.33-.116-.508s.213-.307.398-.335l2.5-.382 1.123-2.392c.165-.351.74-.351.905 0l1.123 2.392 2.5.382c.185.028.339.158.398.335s.015.374-.116.508l-1.824 1.869.432 2.646c.031.189-.049.379-.206.489-.085.06-.186.091-.287.091zm-2.472-2.367c.083 0 .167.021.242.062l1.571.869-.307-1.878c-.025-.157.025-.316.136-.43l1.32-1.354-1.802-.275c-.165-.025-.306-.131-.377-.282l-.783-1.668-.783 1.669c-.071.151-.212.257-.377.282l-1.802.275 1.32 1.354c.111.114.161.273.136.43l-.307 1.878 1.571-.869c.075-.042.159-.063.242-.063z"/></g></g></svg>