<?xml version="1.0" encoding="iso-8859-1"?>
<!-- Generator: Adobe Illustrator 16.0.0, SVG Export Plug-In . SVG Version: 6.00 Build 0)  -->
<!DOCTYPE svg PUBLIC "-//W3C//DTD SVG 1.1//EN" "http://www.w3.org/Graphics/SVG/1.1/DTD/svg11.dtd">
<svg version="1.1" id="Capa_1" xmlns="http://www.w3.org/2000/svg" xmlns:xlink="http://www.w3.org/1999/xlink" x="0px" y="0px"
	 width="986.655px" height="986.656px" viewBox="0 0 986.655 986.656" style="enable-background:new 0 0 986.655 986.656;"
	 xml:space="preserve">
<g>
	<g>
		<path d="M0,113.472v648.211h65.435c12.11,63.416,67.972,111.5,134.863,111.5c66.891,0,122.753-48.084,134.863-111.5h281.596
			c12.11,63.416,67.974,111.5,134.864,111.5s122.753-48.084,134.863-111.5h100.171V402.347L756.847,113.472H0z M820.927,735.876
			c0,9.119-1.788,17.824-5.003,25.807c-10.258,25.469-35.207,43.5-64.303,43.5c-29.097,0-54.046-18.031-64.304-43.5
			c-3.216-7.982-5.003-16.688-5.003-25.807c0-2.773,0.183-5.504,0.501-8.193c1.503-12.697,6.446-24.35,13.878-34
			c12.682-16.471,32.58-27.111,54.927-27.111c22.346,0,42.244,10.641,54.927,27.111c7.431,9.65,12.375,21.303,13.878,34
			C820.744,730.373,820.927,733.103,820.927,735.876z M269.604,735.876c0,9.119-1.788,17.824-5.003,25.807
			c-10.258,25.469-35.207,43.5-64.303,43.5c-29.096,0-54.045-18.031-64.303-43.5c-3.215-7.982-5.003-16.688-5.003-25.807
			c0-2.773,0.183-5.504,0.501-8.193c1.503-12.697,6.447-24.35,13.878-34c12.682-16.471,32.58-27.111,54.927-27.111
			c22.347,0,42.244,10.641,54.927,27.111c7.431,9.65,12.375,21.303,13.878,34C269.421,730.373,269.604,733.103,269.604,735.876z
			 M918.655,693.683h-36.37c-17.845-55.129-69.669-95.111-130.664-95.111s-112.82,39.98-130.665,95.111H330.962
			c-17.845-55.129-69.669-95.111-130.664-95.111c-60.995,0-112.819,39.982-130.664,95.111H68V181.472h638.448v266.75h212.207
			V693.683L918.655,693.683z M774.448,380.222V244.824L882.16,380.221L774.448,380.222L774.448,380.222z"/>
		<polygon points="410.367,511.47 533.467,511.47 533.467,446.47 475.367,446.47 475.367,428.748 533.467,428.748 533.467,363.748 
			475.367,363.748 475.367,347.802 533.467,347.802 533.467,282.802 410.367,282.802 		"/>
		<polygon points="556.034,511.47 679.133,511.47 679.133,446.47 621.034,446.47 621.034,428.748 679.133,428.748 679.133,363.748 
			621.034,363.748 621.034,347.802 679.133,347.802 679.133,282.802 556.034,282.802 		"/>
		<polygon points="89.71,508.976 154.71,508.976 154.71,444.554 212.809,444.554 212.809,379.554 154.71,379.554 154.71,347.632 
			212.809,347.632 212.809,282.632 89.71,282.632 		"/>
		<path d="M384.303,450.743V282.802H228.704v226.004h65v-24.504l70.668,51.907l20.128-27.402l20.127-27.402l-41.743-30.661H384.303z
			 M293.704,347.802h25.599v37.941h-25.599V347.802z"/>
	</g>
</g>
<g>
</g>
<g>
</g>
<g>
</g>
<g>
</g>
<g>
</g>
<g>
</g>
<g>
</g>
<g>
</g>
<g>
</g>
<g>
</g>
<g>
</g>
<g>
</g>
<g>
</g>
<g>
</g>
<g>
</g>
</svg>
