<?xml version="1.0"?>
<svg xmlns="http://www.w3.org/2000/svg" viewBox="0 0 64 64" width="512" height="512"><g id="Outline"><g><path d="M14,48a6,6,0,1,0-6-6A6.006,6.006,0,0,0,14,48Zm0-10a4,4,0,1,1-4,4A4,4,0,0,1,14,38Z"/><path d="M24.381,37H51a1,1,0,0,0,0-2H23.768A9.809,9.809,0,0,0,24,33a10.058,10.058,0,0,0-6.491-9.357L17.044,14.8A3,3,0,0,0,18.816,13H21a1,1,0,0,0,0-2H19V9h2a1,1,0,0,0,0-2H18.816A3,3,0,0,0,16,5H12A3,3,0,0,0,9.184,7H7A1,1,0,0,0,7,9H9v2H7a1,1,0,0,0,0,2H9.184a3,3,0,0,0,1.772,1.8L10,32.947A1,1,0,0,0,11,34h6a1,1,0,0,0,1-1.053l-.372-7.059a7.948,7.948,0,0,1,3.91,9.772,1,1,0,0,0,.172.97,10,10,0,1,1-15.418,0,1,1,0,0,0,.172-.97,7.942,7.942,0,0,1,2.2-8.609,1,1,0,0,0-1.334-1.49A9.935,9.935,0,0,0,4.405,35.793,12.007,12.007,0,1,0,24.381,37ZM12.738,19h2.524l.158,3H12.58Zm.106-2,.105-2h2.1l.105,2Zm-.369,7h3.05l.158,3H12.317ZM12,7h4a1,1,0,0,1,1,1v4a1,1,0,0,1-1,1H12a1,1,0,0,1-1-1V8A1,1,0,0,1,12,7Zm.054,25,.158-3h3.576l.158,3Z"/><path d="M49,29a2,2,0,0,1,2,2,1,1,0,0,0,2,0,4,4,0,0,0-4-4,1,1,0,0,0,0,2Z"/><path d="M49,25a6.006,6.006,0,0,1,6,6,1,1,0,0,0,2,0,8.009,8.009,0,0,0-8-8,1,1,0,0,0,0,2Z"/><path d="M49,21A10.011,10.011,0,0,1,59,31a1,1,0,0,0,2,0A12.013,12.013,0,0,0,49,19a1,1,0,0,0,0,2Z"/><path d="M30,40a1,1,0,0,0-1,1v8a1,1,0,0,0,1,1h4a1,1,0,0,0,0-2H31V41A1,1,0,0,0,30,40Z"/><path d="M37,41v8a1,1,0,0,0,2,0V41a1,1,0,0,0-2,0Z"/><path d="M47.063,40.649,45,46.152l-2.063-5.5a1,1,0,1,0-1.874.7l3,8a1,1,0,0,0,1.874,0l3-8a1,1,0,1,0-1.874-.7Z"/><path d="M56,42a1,1,0,0,0,0-2H52a1,1,0,0,0-1,1v8a1,1,0,0,0,1,1h4a1,1,0,0,0,0-2H53V46h3a1,1,0,0,0,0-2H53V42Z"/><path d="M61,35H55a1,1,0,0,0,0,2h5V53H24a1,1,0,0,0,0,2H61a1,1,0,0,0,1-1V36A1,1,0,0,0,61,35Z"/><path d="M25.5,18.027a3,3,0,0,0,4.1-1.1l2-3.464,2.6,1.5a3,3,0,0,0,4.1-1.1l1-1.732a1,1,0,0,0-.366-1.366l-4.33-2.5A2,2,0,0,0,31.866,9l-2.592,4.49a2.932,2.932,0,0,0-.774-.66,3,3,0,0,0-3,5.2ZM37.062,12l-.5.866a1,1,0,0,1-1.366.366l-2.6-1.5L33.6,10ZM26.134,14.929a1,1,0,0,1,.868-.5,1,1,0,0,1,.864,1.5,1,1,0,1,1-1.732-1Z"/><path d="M31,21v6.184A2.966,2.966,0,0,0,30,27a3,3,0,1,0,3,3V26h6v1.184A2.966,2.966,0,0,0,38,27a3,3,0,1,0,3,3V21a1,1,0,0,0-1-1H32A1,1,0,0,0,31,21ZM30,31a1,1,0,1,1,1-1A1,1,0,0,1,30,31Zm8,0a1,1,0,1,1,1-1A1,1,0,0,1,38,31Zm-5-9h6v2H33Z"/></g></g></svg>
